<?xml version="1.0" encoding="utf-8"?>
<!-- Svg Vector Icons : http://www.onlinewebfonts.com/icon -->
<!DOCTYPE svg PUBLIC "-//W3C//DTD SVG 1.1//EN" "http://www.w3.org/Graphics/SVG/1.1/DTD/svg11.dtd">
<svg version="1.1" xmlns="http://www.w3.org/2000/svg" xmlns:xlink="http://www.w3.org/1999/xlink" x="0px" y="0px" viewBox="0 0 256 256" enable-background="new 0 0 256 256" xml:space="preserve">
<metadata> Svg Vector Icons : http://www.onlinewebfonts.com/icon </metadata>
<g><g><g><path fill="#000000" d="M51.6,10.1C51.1,10.2,49,10.6,47,11c-8.1,1.6-16,5.8-22.6,12.1c-6.9,6.7-11.6,15-13.6,24.1C10,50.9,10,55.3,10,128c0,72.7,0,77.1,0.8,80.8c3.2,15,14.3,28.2,28.6,33.9c8.6,3.5,2.7,3.2,88.6,3.2c72.7,0,77.1,0,80.8-0.8c15-3.2,28.2-14.3,33.9-28.6c3.5-8.6,3.2-2.7,3.2-88.6c0-72.6,0-77.1-0.8-80.8c-1.8-8.6-6-16.3-12.3-22.8c-4.7-4.9-10.1-8.6-15.9-11c-8.9-3.6-1.9-3.4-87.8-3.5C87,9.9,52.1,10,51.6,10.1z M207.7,20.3c9.6,2.6,17.4,8,22.6,15.9c2.6,3.9,4.2,7.4,5.4,12.3l1,4V128v75.5l-1,4c-1.8,7.3-5.1,13.1-10.2,18.1c-5,5.1-10.9,8.4-18.1,10.1c-3.6,0.9-5.3,1-20.4,1l-16.4,0l-0.1-44.9l-0.1-44.9H182c6.3,0,11.5-0.1,11.5-0.2c0-0.1,1.3-8.4,3-18.2c1.7-9.9,3-18.3,3-18.7c0-0.6-1.7-0.7-14.5-0.7h-14.5v-5.3c0-2.9,0.2-5.8,0.4-6.4c0.8-2,2.6-2.3,15.9-2.5l12.3-0.2V78.8c0-8.7-0.1-15.9-0.2-15.9s-2.8-0.7-6-1.6c-19.4-5.4-36.2-5.4-46.4-0.3c-7.8,3.9-12.9,10-15.8,18.5c-1.8,5.5-2.4,9.7-2.7,19.7l-0.3,9.8h-7.1h-7.1V128V147h7.2h7.2V192v45l-38-0.2c-37-0.1-38.1-0.2-41.8-1.2c-9.5-2.5-17.4-8-22.6-15.9c-2.6-3.9-4.2-7.4-5.4-12.3l-1-4V128V52.5l1-4c1.8-7.3,5.1-13.1,10.2-18.1c6.3-6.4,14.1-10,23.2-10.9c1.9-0.2,36.5-0.3,76.9-0.3l73.4,0.1L207.7,20.3z M180.4,68.2c3.3,0.6,6.7,1.3,7.5,1.5l1.5,0.3v7.8v7.8l-8.4,0.2c-9.5,0.2-11.9,0.7-15.2,3.2c-1.2,0.9-2.5,2.5-3.2,3.8c-1.1,2.2-1.2,2.5-1.3,14.1l-0.1,11.9h13.7h13.7l-0.3,1.2c-0.1,0.7-0.8,4.9-1.5,9.2l-1.3,8h-12.1h-12.1l-0.1,49.7l-0.1,49.8h-11.8h-11.8l-0.1-49.8l-0.1-49.7h-6.9h-6.9V128v-9.2h6.9h6.9v-8.5c0-10.9,0.6-20.7,1.6-24.7c2.5-10.3,8.9-16.5,18.8-18.4C162.6,66.3,172.9,66.7,180.4,68.2z"/></g></g></g>
</svg>