<?xml version="1.0" standalone="no"?>
<!DOCTYPE svg PUBLIC "-//W3C//DTD SVG 20010904//EN"
 "http://www.w3.org/TR/2001/REC-SVG-20010904/DTD/svg10.dtd">
<svg version="1.0" xmlns="http://www.w3.org/2000/svg"
 width="206.000000pt" height="72.000000pt" viewBox="0 0 206.000000 72.000000"
 preserveAspectRatio="xMidYMid meet">

<g transform="translate(0.000000,72.000000) scale(0.100000,-0.100000)"
fill="#eaeef1" stroke="none">
<path d="M1462 578 c2 -26 8 -34 26 -36 21 -3 23 0 20 30 -2 26 -8 34 -26 36
-21 3 -23 0 -20 -30z"/>
<path d="M1532 373 l3 -238 34 -3 c52 -5 68 32 29 68 l-22 20 157 0 157 0 -2
193 -3 192 -178 3 -177 2 2 -237z m128 109 c0 -5 -14 -21 -30 -37 l-30 -29 32
-33 c17 -18 28 -36 24 -40 -3 -4 -26 12 -48 35 l-42 42 34 35 c32 33 60 45 60
27z m70 -10 c0 -36 -23 -132 -31 -132 -12 0 -11 26 2 93 11 54 29 78 29 39z
m90 -17 l34 -35 -42 -42 c-22 -23 -45 -39 -48 -35 -4 4 7 22 24 40 l32 33 -30
29 c-16 16 -30 32 -30 37 0 18 28 6 60 -27z"/>
<path d="M116 414 c-29 -28 -16 -57 32 -74 59 -20 57 -44 -3 -38 -32 4 -45 2
-45 -7 0 -28 73 -34 108 -9 40 28 25 65 -31 79 -33 9 -43 23 -28 38 8 8 19 8
42 0 26 -10 30 -10 27 5 -5 24 -80 29 -102 6z"/>
<path d="M750 403 c-55 -70 23 -164 101 -123 32 17 22 32 -16 24 -43 -8 -65 8
-65 47 0 27 22 59 41 59 6 0 19 -5 29 -10 13 -7 21 -7 26 1 10 16 -15 29 -58
29 -28 0 -42 -6 -58 -27z"/>
<path d="M1110 400 c0 -28 -2 -30 -20 -20 -34 18 -60 -4 -60 -49 0 -49 14 -60
70 -57 l45 2 0 74 c0 63 -3 75 -17 78 -14 3 -18 -3 -18 -28z m-5 -70 c0 -29
-32 -41 -41 -16 -9 24 4 48 23 44 12 -2 18 -12 18 -28z"/>
<path d="M261 376 c-17 -21 -10 -101 9 -101 10 0 17 13 20 40 3 27 10 41 22
43 13 3 17 -6 20 -40 4 -51 31 -62 36 -14 7 62 -19 97 -57 76 -12 -6 -22 -5
-28 1 -6 6 -14 5 -22 -5z"/>
<path d="M430 383 c-22 -8 -40 -34 -40 -58 0 -48 70 -73 103 -37 43 48 -3 117
-63 95z m44 -38 c8 -23 -4 -45 -25 -45 -13 0 -19 7 -19 23 0 37 32 53 44 22z"/>
<path d="M534 376 c-8 -20 29 -106 46 -106 6 0 17 14 24 32 l14 32 16 -33 c10
-18 23 -31 29 -28 16 5 59 96 52 108 -9 14 -24 1 -39 -34 l-13 -32 -17 39
c-13 32 -18 36 -31 26 -8 -6 -17 -20 -20 -31 -7 -22 -25 -26 -25 -6 0 7 -6 22
-14 33 -14 18 -15 18 -22 0z"/>
<path d="M904 365 c-27 -27 -26 -59 4 -82 34 -27 84 -9 97 34 7 25 -32 73 -60
73 -9 0 -27 -11 -41 -25z m61 -35 c0 -16 -6 -26 -18 -28 -19 -4 -32 20 -23 44
9 25 41 13 41 -16z"/>
<path d="M1192 374 c-27 -19 -29 -64 -4 -87 23 -21 65 -22 82 -2 11 13 7 15
-24 15 -45 0 -48 18 -3 22 26 2 31 7 29 23 -4 21 -28 45 -47 45 -6 0 -21 -7
-33 -16z m48 -24 c0 -5 -7 -10 -15 -10 -8 0 -15 5 -15 10 0 6 7 10 15 10 8 0
15 -4 15 -10z"/>
<path d="M1640 165 l0 -35 161 0 160 0 -3 33 -3 32 -157 3 -158 3 0 -36z"/>
<path d="M1170 166 c0 -8 4 -17 9 -20 5 -4 7 3 4 14 -6 23 -13 26 -13 6z"/>
<path d="M1240 154 c0 -8 5 -12 10 -9 6 4 8 11 5 16 -9 14 -15 11 -15 -7z"/>
</g>
</svg>
